<svg width="209" height="72" viewBox="0 0 209 72" fill="none" xmlns="http://www.w3.org/2000/svg">
<path d="M156.777 27.8496C156.777 27.8496 151.914 27.5897 149.328 20.7597C147.767 16.646 148.497 12.5305 149.321 9.89347C147.865 12.5498 147.085 15.4813 147.237 18.2908C147.759 27.98 156.499 29.8613 156.499 29.8613C156.499 29.8613 164.871 33.0535 173.889 36.6959L194.746 39.699C174.714 24.1107 156.777 27.8496 156.777 27.8496Z" fill="#DDDFE0"/>
<path d="M154.893 37.1772C154.893 37.1772 154.882 33.1181 156.493 29.8599C156.493 29.8599 161.724 26.5729 177.599 31.4813C193.474 36.3896 195.098 40.2041 195.098 40.2041C195.098 40.2041 195.646 42.8811 193.162 47.4312L154.893 37.1772Z" fill="#FDF1F2"/>
<path d="M172.874 46.6116C183.19 49.3757 192.069 49.688 192.707 47.3092C193.344 44.9304 185.498 40.7612 175.182 37.997C164.866 35.2329 155.987 34.9205 155.35 37.2993C154.712 39.6782 162.558 43.8474 172.874 46.6116Z" fill="#BBBDBF"/>
<path d="M172.715 47.2069C183.282 50.0385 192.436 50.1388 193.162 47.4312C193.887 44.7236 185.91 40.2332 175.342 37.4017C164.774 34.5701 155.619 34.4695 154.893 37.1772C154.168 39.8848 162.147 44.3754 172.715 47.2069Z" fill="#C8CACB"/>
<path d="M17.7845 62.7517C14.8405 62.7517 12.2645 62.2397 10.0565 61.2157C7.88046 60.1597 6.05646 58.7677 4.58446 57.0397C3.11246 55.2797 2.00846 53.3117 1.27246 51.1357C0.536457 48.9597 0.168457 46.7357 0.168457 44.4637C0.168457 42.2237 0.536457 40.0157 1.27246 37.8397C2.00846 35.6637 3.11246 33.7117 4.58446 31.9837C6.05646 30.2237 7.88046 28.8317 10.0565 27.8077C12.2645 26.7837 14.8405 26.2717 17.7845 26.2717C20.2485 26.2717 22.3445 26.5917 24.0725 27.2317C25.8325 27.8397 27.2885 28.6397 28.4405 29.6317C29.6245 30.5917 30.5685 31.6317 31.2725 32.7517C32.0085 33.8397 32.5525 34.8797 32.9045 35.8717C33.2565 36.8317 33.4805 37.6317 33.5765 38.2717C33.7045 38.8797 33.7685 39.1837 33.7685 39.1837H26.4245C26.4245 39.1837 26.3605 38.9757 26.2325 38.5597C26.1365 38.1117 25.9285 37.5837 25.6085 36.9757C25.2885 36.3357 24.8085 35.7117 24.1685 35.1037C23.5605 34.4957 22.7285 33.9837 21.6725 33.5677C20.6485 33.1197 19.3685 32.8957 17.8325 32.8957C15.6245 32.8957 13.7685 33.4717 12.2645 34.6237C10.7925 35.7437 9.67246 37.1837 8.90446 38.9437C8.16846 40.7037 7.80046 42.5437 7.80046 44.4637C7.80046 46.3837 8.16846 48.2397 8.90446 50.0317C9.67246 51.7917 10.7925 53.2477 12.2645 54.3997C13.7685 55.5197 15.6245 56.0797 17.8325 56.0797C19.3685 56.0797 20.6485 55.8717 21.6725 55.4557C22.7285 55.0397 23.5605 54.5277 24.1685 53.9197C24.8085 53.2797 25.2885 52.6557 25.6085 52.0477C25.9285 51.4077 26.1365 50.8797 26.2325 50.4637C26.3605 50.0477 26.4245 49.8397 26.4245 49.8397H33.7685C33.7685 49.8397 33.7045 50.1597 33.5765 50.7997C33.4805 51.4077 33.2565 52.2077 32.9045 53.1997C32.5525 54.1597 32.0085 55.1997 31.2725 56.3197C30.5685 57.4077 29.6245 58.4477 28.4405 59.4397C27.2885 60.3997 25.8325 61.1997 24.0725 61.8397C22.3445 62.4477 20.2485 62.7517 17.7845 62.7517Z" fill="#EE7D80"/>
<path d="M38.9656 62.2717V25.7917H46.2616V40.4797H46.5016C46.7896 39.9677 47.2056 39.3917 47.7496 38.7517C48.3256 38.1117 49.0776 37.5517 50.0056 37.0717C50.9656 36.5917 52.1816 36.3517 53.6536 36.3517C55.6376 36.3517 57.2536 36.8157 58.5016 37.7437C59.7496 38.6397 60.6616 39.8077 61.2376 41.2477C61.8136 42.6557 62.1016 44.1437 62.1016 45.7117V62.2717H54.8056V46.9597C54.8056 45.7437 54.4696 44.6717 53.7976 43.7437C53.1576 42.8157 52.1176 42.3517 50.6776 42.3517C49.5896 42.3517 48.7256 42.6077 48.0856 43.1197C47.4456 43.6317 46.9816 44.2877 46.6936 45.0877C46.4056 45.8877 46.2616 46.7357 46.2616 47.6317V62.2717H38.9656Z" fill="#EE7D80"/>
<path d="M78.2555 36.3517C79.8875 36.3517 81.2315 36.6237 82.2875 37.1677C83.3435 37.6797 84.1435 38.2397 84.6875 38.8477C85.2635 39.4557 85.6155 39.8717 85.7435 40.0957H86.1275V36.8317H93.4235V62.2717H86.1275V59.0077H85.7435C85.6155 59.2317 85.2635 59.6477 84.6875 60.2557C84.1435 60.8637 83.3435 61.4397 82.2875 61.9837C81.2315 62.4957 79.8875 62.7517 78.2555 62.7517C76.3675 62.7517 74.7195 62.3837 73.3115 61.6477C71.9355 60.8797 70.7835 59.8717 69.8555 58.6237C68.9275 57.3437 68.2235 55.9197 67.7435 54.3517C67.2955 52.7837 67.0715 51.1837 67.0715 49.5517C67.0715 47.9197 67.2955 46.3197 67.7435 44.7517C68.2235 43.1837 68.9275 41.7757 69.8555 40.5277C70.7835 39.2477 71.9355 38.2397 73.3115 37.5037C74.7195 36.7357 76.3675 36.3517 78.2555 36.3517ZM80.3675 42.2557C79.0555 42.2557 77.9515 42.6237 77.0555 43.3597C76.1915 44.0637 75.5355 44.9757 75.0875 46.0957C74.6715 47.2157 74.4635 48.3677 74.4635 49.5517C74.4635 50.7357 74.6715 51.8877 75.0875 53.0077C75.5355 54.1277 76.1915 55.0557 77.0555 55.7917C77.9515 56.4957 79.0555 56.8477 80.3675 56.8477C81.6795 56.8477 82.7675 56.4957 83.6315 55.7917C84.5275 55.0557 85.1835 54.1277 85.5995 53.0077C86.0475 51.8877 86.2715 50.7357 86.2715 49.5517C86.2715 48.3677 86.0475 47.2157 85.5995 46.0957C85.1835 44.9757 84.5275 44.0637 83.6315 43.3597C82.7675 42.6237 81.6795 42.2557 80.3675 42.2557Z" fill="#EE7D80"/>
<path d="M99.6218 71.6317V36.8317H106.918V40.0957H107.254C107.414 39.8717 107.766 39.4557 108.31 38.8477C108.886 38.2397 109.702 37.6797 110.758 37.1677C111.814 36.6237 113.158 36.3517 114.79 36.3517C116.678 36.3517 118.31 36.7357 119.686 37.5037C121.094 38.2397 122.262 39.2477 123.19 40.5277C124.118 41.7757 124.806 43.1837 125.254 44.7517C125.734 46.3197 125.974 47.9197 125.974 49.5517C125.974 51.1837 125.734 52.7837 125.254 54.3517C124.806 55.9197 124.118 57.3437 123.19 58.6237C122.262 59.8717 121.094 60.8797 119.686 61.6477C118.31 62.3837 116.678 62.7517 114.79 62.7517C113.158 62.7517 111.814 62.4957 110.758 61.9837C109.702 61.4397 108.886 60.8637 108.31 60.2557C107.766 59.6477 107.414 59.2317 107.254 59.0077H106.918V71.6317H99.6218ZM106.774 49.5517C106.774 50.7357 106.982 51.8877 107.398 53.0077C107.846 54.1277 108.502 55.0557 109.366 55.7917C110.262 56.4957 111.366 56.8477 112.678 56.8477C113.99 56.8477 115.078 56.4957 115.942 55.7917C116.838 55.0557 117.494 54.1277 117.91 53.0077C118.358 51.8877 118.582 50.7357 118.582 49.5517C118.582 48.3677 118.358 47.2157 117.91 46.0957C117.494 44.9757 116.838 44.0637 115.942 43.3597C115.078 42.6237 113.99 42.2557 112.678 42.2557C111.366 42.2557 110.262 42.6237 109.366 43.3597C108.502 44.0637 107.846 44.9757 107.398 46.0957C106.982 47.2157 106.774 48.3677 106.774 49.5517Z" fill="#EE7D80"/>
<path d="M131.403 71.6317V36.8317H138.699V40.0957H139.035C139.195 39.8717 139.547 39.4557 140.091 38.8477C140.667 38.2397 141.483 37.6797 142.539 37.1677C143.595 36.6237 144.939 36.3517 146.571 36.3517C148.459 36.3517 150.091 36.7357 151.467 37.5037C152.875 38.2397 154.043 39.2477 154.971 40.5277C155.899 41.7757 156.587 43.1837 157.035 44.7517C157.515 46.3197 157.755 47.9197 157.755 49.5517C157.755 51.1837 157.515 52.7837 157.035 54.3517C156.587 55.9197 155.899 57.3437 154.971 58.6237C154.043 59.8717 152.875 60.8797 151.467 61.6477C150.091 62.3837 148.459 62.7517 146.571 62.7517C144.939 62.7517 143.595 62.4957 142.539 61.9837C141.483 61.4397 140.667 60.8637 140.091 60.2557C139.547 59.6477 139.195 59.2317 139.035 59.0077H138.699V71.6317H131.403ZM138.555 49.5517C138.555 50.7357 138.763 51.8877 139.179 53.0077C139.627 54.1277 140.283 55.0557 141.147 55.7917C142.043 56.4957 143.147 56.8477 144.459 56.8477C145.771 56.8477 146.859 56.4957 147.723 55.7917C148.619 55.0557 149.275 54.1277 149.691 53.0077C150.139 51.8877 150.363 50.7357 150.363 49.5517C150.363 48.3677 150.139 47.2157 149.691 46.0957C149.275 44.9757 148.619 44.0637 147.723 43.3597C146.859 42.6237 145.771 42.2557 144.459 42.2557C143.147 42.2557 142.043 42.6237 141.147 43.3597C140.283 44.0637 139.627 44.9757 139.179 46.0957C138.763 47.2157 138.555 48.3677 138.555 49.5517Z" fill="#EE7D80"/>
<path d="M163.643 71.6317C162.779 71.6317 162.091 71.5997 161.579 71.5357C161.067 71.4717 160.811 71.4397 160.811 71.4397V65.5837C160.811 65.5837 161.019 65.5997 161.435 65.6317C161.883 65.6637 162.427 65.6797 163.067 65.6797C164.603 65.6797 165.867 65.4557 166.859 65.0077C167.851 64.5917 168.715 63.7597 169.451 62.5117L160.043 36.8317H167.339L173.243 54.0637L179.003 36.8317H186.347L177.227 61.2637C176.395 63.5997 175.387 65.5357 174.203 67.0717C173.051 68.6077 171.627 69.7437 169.931 70.4797C168.235 71.2477 166.139 71.6317 163.643 71.6317Z" fill="#EE7D80"/>
<path d="M156.496 29.8548C156.496 29.8548 147.759 27.98 147.233 18.2842C146.482 4.37757 168.252 -12.6943 184.663 17.1718C184.663 17.1718 207.053 16.2795 208.166 31.4261C208.957 42.1417 201.343 48.9183 190.729 43.8827C180.119 38.8536 156.496 29.8548 156.496 29.8548Z" fill="#FDF1F2"/>
<path d="M190.962 30.1122C190.962 30.1122 189.477 22.34 187.051 17.2067C185.587 17.1418 184.669 17.1731 184.669 17.1731C184.669 17.1731 189.522 25.587 190.962 30.1122Z" fill="#DDDFE0"/>
<path d="M202.93 21.9162C202.993 22.0109 209.201 31.2926 204.926 38.1983C200.629 45.1426 194.598 43.0715 187.705 39.0995C181.734 35.663 171.711 33.1048 164.149 32.8099C164.506 32.9498 164.873 33.0925 165.248 33.2431C170.294 33.8792 178.701 35.4715 185.291 39.3904C189.651 41.9846 192.46 43.8858 194.578 45.2358C203.125 47.1542 208.863 40.7958 208.171 31.4274C207.85 27.0576 205.749 24.0256 202.93 21.9162Z" fill="#DDDFE0"/>
<path d="M159.79 31.2038C159.79 31.2038 171.459 29.2368 190.538 39.2317C190.539 39.2265 176.52 28.5731 159.79 31.2038Z" fill="#DDDFE0"/>
<path d="M150.019 12.0283C150.019 12.0283 148.383 22.9592 157.281 25.9703C157.281 25.9703 151.414 22.273 150.019 12.0283Z" fill="#DDDFE0"/>
</svg>
