<!--?xml version="1.0" standalone="no"?-->              <svg id="sw-js-blob-svg" viewBox="0 0 100 100" xmlns="http://www.w3.org/2000/svg">                    <defs>                         <linearGradient id="sw-gradient" x1="0" x2="1" y1="1" y2="0">                            <stop id="stop1" stop-color="rgba(248, 185, 185, 1)" offset="0%"></stop>                            <stop id="stop2" stop-color="rgba(248, 185, 185, 1)" offset="100%"></stop>                        </linearGradient>                    </defs>                <path fill="url(#sw-gradient)" d="M20.6,-24.5C26,-20,29.3,-12.9,30.4,-5.5C31.5,1.9,30.5,9.5,27.3,16.4C24.1,23.4,18.6,29.8,11.5,33.1C4.3,36.4,-4.6,36.7,-11.2,33.2C-17.8,29.7,-22.1,22.5,-27.6,15C-33,7.5,-39.6,-0.3,-39.2,-7.7C-38.8,-15,-31.5,-21.9,-23.8,-25.9C-16.1,-30,-8,-31.2,-0.2,-30.9C7.6,-30.6,15.2,-28.9,20.6,-24.5Z" width="100%" height="100%" transform="translate(50 50)" stroke-width="0" style="transition: all 0.3s ease 0s;"></path>              </svg>